<mxfile host="Electron" modified="2024-02-01T04:44:16.807Z" agent="Mozilla/5.0 (Windows NT 10.0; Win64; x64) AppleWebKit/537.36 (KHTML, like Gecko) draw.io/23.0.2 Chrome/120.0.6099.109 Electron/28.1.0 Safari/537.36" etag="lKzdByh-LdAP8cZSFMzf" version="23.0.2" type="device">
  <diagram name="第 1 页" id="URgR9DqAtcZaZKaGvzxR">
    <mxGraphModel dx="1434" dy="836" grid="1" gridSize="10" guides="1" tooltips="1" connect="1" arrows="1" fold="1" page="1" pageScale="1" pageWidth="827" pageHeight="1169" math="1" shadow="0">
      <root>
        <mxCell id="0" />
        <mxCell id="1" parent="0" />
        <mxCell id="qXw_5wGfPfzPmwf9Ia0m-1" value="" style="sketch=0;aspect=fixed;pointerEvents=1;shadow=0;dashed=0;html=1;strokeColor=none;labelPosition=center;verticalLabelPosition=bottom;verticalAlign=top;align=center;fillColor=#00188D;shape=mxgraph.mscae.enterprise.server_generic" parent="1" vertex="1">
          <mxGeometry x="302" y="42" width="24" height="50" as="geometry" />
        </mxCell>
        <mxCell id="qXw_5wGfPfzPmwf9Ia0m-2" value="" style="sketch=0;aspect=fixed;pointerEvents=1;shadow=0;dashed=0;html=1;strokeColor=none;labelPosition=center;verticalLabelPosition=bottom;verticalAlign=top;align=center;fillColor=#00188D;shape=mxgraph.azure.computer" parent="1" vertex="1">
          <mxGeometry x="72" y="102" width="50" height="45" as="geometry" />
        </mxCell>
        <mxCell id="qXw_5wGfPfzPmwf9Ia0m-3" value="" style="sketch=0;aspect=fixed;pointerEvents=1;shadow=0;dashed=0;html=1;strokeColor=none;labelPosition=center;verticalLabelPosition=bottom;verticalAlign=top;align=center;fillColor=#00188D;shape=mxgraph.mscae.enterprise.server_generic" parent="1" vertex="1">
          <mxGeometry x="302" y="162" width="24" height="50" as="geometry" />
        </mxCell>
        <mxCell id="qXw_5wGfPfzPmwf9Ia0m-4" value="$$\mathcal{S}_{Query}$$" style="text;html=1;align=center;verticalAlign=middle;resizable=0;points=[];autosize=1;strokeColor=none;fillColor=none;expand=1;fixedWidth=0;resizeWidth=0;" parent="1" vertex="1">
          <mxGeometry x="234" y="10" width="160" height="30" as="geometry" />
        </mxCell>
        <mxCell id="qXw_5wGfPfzPmwf9Ia0m-5" value="$$\mathcal{S}_{Hint}$$" style="text;html=1;align=center;verticalAlign=middle;resizable=0;points=[];autosize=1;strokeColor=none;fillColor=none;expand=1;fixedWidth=0;resizeWidth=0;" parent="1" vertex="1">
          <mxGeometry x="239" y="212" width="150" height="30" as="geometry" />
        </mxCell>
        <mxCell id="qXw_5wGfPfzPmwf9Ia0m-7" value="$$i=10$$" style="text;html=1;align=center;verticalAlign=middle;resizable=0;points=[];autosize=1;strokeColor=none;fillColor=none;" parent="1" vertex="1">
          <mxGeometry x="49" y="30" width="70" height="30" as="geometry" />
        </mxCell>
        <mxCell id="qXw_5wGfPfzPmwf9Ia0m-8" value="$$Hint = \{1,8,10,14\}$$" style="text;html=1;align=center;verticalAlign=middle;resizable=0;points=[];autosize=1;strokeColor=none;fillColor=none;" parent="1" vertex="1">
          <mxGeometry x="26" y="49" width="150" height="30" as="geometry" />
        </mxCell>
        <mxCell id="UWBAnyuVe8W5l_kDe_lz-3" value="" style="endArrow=classic;html=1;rounded=0;entryX=0.237;entryY=1.029;entryDx=0;entryDy=0;entryPerimeter=0;" parent="1" edge="1">
          <mxGeometry width="50" height="50" relative="1" as="geometry">
            <mxPoint x="172" y="62" as="sourcePoint" />
            <mxPoint x="281.9200000000001" y="62" as="targetPoint" />
          </mxGeometry>
        </mxCell>
        <mxCell id="UWBAnyuVe8W5l_kDe_lz-4" value="" style="endArrow=classic;html=1;rounded=0;" parent="1" edge="1">
          <mxGeometry width="50" height="50" relative="1" as="geometry">
            <mxPoint x="282" y="72" as="sourcePoint" />
            <mxPoint x="172" y="72" as="targetPoint" />
          </mxGeometry>
        </mxCell>
        <mxCell id="UWBAnyuVe8W5l_kDe_lz-5" value="$$Crumb=12$$" style="text;html=1;align=center;verticalAlign=middle;resizable=0;points=[];autosize=1;strokeColor=none;fillColor=none;" parent="1" vertex="1">
          <mxGeometry x="10" y="70" width="110" height="30" as="geometry" />
        </mxCell>
        <mxCell id="UWBAnyuVe8W5l_kDe_lz-6" value="$$\{1,8,12,14\}$$" style="text;html=1;align=center;verticalAlign=middle;resizable=0;points=[];autosize=1;strokeColor=none;fillColor=none;" parent="1" vertex="1">
          <mxGeometry x="172" y="30" width="110" height="30" as="geometry" />
        </mxCell>
        <mxCell id="UWBAnyuVe8W5l_kDe_lz-8" value="$$\mathcal{D}_1+\mathcal{D}_8+\mathcal{D}_{12}+\mathcal{D}_{14}$$" style="text;html=1;align=center;verticalAlign=middle;resizable=0;points=[];autosize=1;strokeColor=none;fillColor=none;expand=1;fixedWidth=0;resizeWidth=0;" parent="1" vertex="1">
          <mxGeometry x="27" y="72" width="400" height="30" as="geometry" />
        </mxCell>
        <mxCell id="UWBAnyuVe8W5l_kDe_lz-9" value="" style="endArrow=classic;html=1;rounded=0;entryX=0.237;entryY=1.029;entryDx=0;entryDy=0;entryPerimeter=0;" parent="1" edge="1">
          <mxGeometry width="50" height="50" relative="1" as="geometry">
            <mxPoint x="172" y="183" as="sourcePoint" />
            <mxPoint x="281.9200000000001" y="183" as="targetPoint" />
          </mxGeometry>
        </mxCell>
        <mxCell id="UWBAnyuVe8W5l_kDe_lz-10" value="" style="endArrow=classic;html=1;rounded=0;" parent="1" edge="1">
          <mxGeometry width="50" height="50" relative="1" as="geometry">
            <mxPoint x="282" y="193" as="sourcePoint" />
            <mxPoint x="172" y="193" as="targetPoint" />
          </mxGeometry>
        </mxCell>
        <mxCell id="UWBAnyuVe8W5l_kDe_lz-11" value="$$\{3,5,9,15\}$$" style="text;html=1;align=center;verticalAlign=middle;resizable=0;points=[];autosize=1;strokeColor=none;fillColor=none;" parent="1" vertex="1">
          <mxGeometry x="172" y="151" width="110" height="30" as="geometry" />
        </mxCell>
        <mxCell id="UWBAnyuVe8W5l_kDe_lz-12" value="$$\{\mathcal{D}_3,\mathcal{D}_5,\mathcal{D}_9,\mathcal{D}_{15}\}$$" style="text;html=1;align=center;verticalAlign=middle;resizable=0;points=[];autosize=1;strokeColor=none;fillColor=none;expand=1;fixedWidth=0;resizeWidth=0;" parent="1" vertex="1">
          <mxGeometry x="32" y="192" width="390" height="30" as="geometry" />
        </mxCell>
        <mxCell id="UWBAnyuVe8W5l_kDe_lz-13" value="$$Hint&#39;&lt;br&gt;&amp;nbsp;= \{3,5,10,15\}$$" style="text;html=1;align=center;verticalAlign=middle;resizable=0;points=[];autosize=1;strokeColor=none;fillColor=none;" parent="1" vertex="1">
          <mxGeometry x="38.5" y="156.5" width="120" height="40" as="geometry" />
        </mxCell>
        <mxCell id="UWBAnyuVe8W5l_kDe_lz-14" value="$$Crumb&#39;&lt;br&gt;=9$$" style="text;html=1;align=center;verticalAlign=middle;resizable=0;points=[];autosize=1;strokeColor=none;fillColor=none;" parent="1" vertex="1">
          <mxGeometry x="22.5" y="177.5" width="80" height="40" as="geometry" />
        </mxCell>
      </root>
    </mxGraphModel>
  </diagram>
</mxfile>
